<?xml version="1.0" encoding="UTF-8" standalone="no"?>
<!-- Generator: Adobe Illustrator 18.0.0, SVG Export Plug-In . SVG Version: 6.00 Build 0)  -->

<svg
   xmlns:dc="http://purl.org/dc/elements/1.1/"
   xmlns:cc="http://creativecommons.org/ns#"
   xmlns:rdf="http://www.w3.org/1999/02/22-rdf-syntax-ns#"
   xmlns:svg="http://www.w3.org/2000/svg"
   xmlns="http://www.w3.org/2000/svg"
   xmlns:sodipodi="http://sodipodi.sourceforge.net/DTD/sodipodi-0.dtd"
   xmlns:inkscape="http://www.inkscape.org/namespaces/inkscape"
   version="1.1"
   id="Capa_1"
   x="0px"
   y="0px"
   viewBox="0 0 384 384"
   style="enable-background:new 0 0 384 384;"
   xml:space="preserve"
   inkscape:version="0.48.4 r9939"
   width="100%"
   height="100%"
   sodipodi:docname="chart59.svg"><metadata
     id="metadata43"><rdf:RDF><cc:Work
         rdf:about=""><dc:format>image/svg+xml</dc:format><dc:type
           rdf:resource="http://purl.org/dc/dcmitype/StillImage" /></cc:Work></rdf:RDF></metadata><defs
     id="defs41" /><sodipodi:namedview
     pagecolor="#ffffff"
     bordercolor="#666666"
     borderopacity="1"
     objecttolerance="10"
     gridtolerance="10"
     guidetolerance="10"
     inkscape:pageopacity="0"
     inkscape:pageshadow="2"
     inkscape:window-width="726"
     inkscape:window-height="480"
     id="namedview39"
     showgrid="false"
     inkscape:zoom="0.61458333"
     inkscape:cx="192"
     inkscape:cy="192"
     inkscape:window-x="0"
     inkscape:window-y="0"
     inkscape:window-maximized="0"
     inkscape:current-layer="Capa_1" /><g
     id="g3"
     style="fill:#01bdf2;fill-opacity:1"><path
       d="M369,273.82H92V41.166c0-8.284-6.716-15-15-15s-15,6.716-15,15V273.82H15c-8.284,0-15,6.716-15,15c0,8.284,6.716,15,15,15   h47v39.014c0,8.284,6.716,15,15,15s15-6.716,15-15V303.82h277c8.284,0,15-6.716,15-15C384,280.536,377.284,273.82,369,273.82z"
       id="path5"
       style="fill:#01bdf2;fill-opacity:1" /><path
       d="M129,248.524c11.028,0,20-8.972,20-20c0-4.565-1.554-8.764-4.138-12.134l36.182-87.191l36.966,76.212   c-1.76,2.977-2.788,6.434-2.788,10.135c0,11.028,8.972,20,20,20c11.028,0,20-8.972,20-20c0-2.79-0.578-5.446-1.614-7.861   l13.918-17.868c1.081,0.182,2.184,0.299,3.315,0.299c1.035,0,2.045-0.104,3.038-0.256l12.953,17.591   c-1.103,2.478-1.728,5.213-1.728,8.096c0,11.028,8.972,20,20,20c11.028,0,20-8.972,20-20c0-4.165-1.282-8.034-3.469-11.239   l27.098-54.34c10.345-0.755,18.536-9.392,18.536-19.926c0-11.028-8.972-20-20-20s-20,8.972-20,20c0,4.156,1.276,8.02,3.455,11.221   l-27.107,54.359c-0.209,0.016-0.422,0.018-0.629,0.039l-13.51-18.347c0.867-2.237,1.362-4.658,1.362-7.198c0-11.028-8.972-20-20-20   c-11.028,0-20,8.972-20,20c0,2.445,0.463,4.778,1.269,6.946l-14.519,18.638c-0.7-0.083-1.411-0.133-2.132-0.142l-38.336-79.037   c2.388-3.294,3.813-7.329,3.813-11.7c0-11.028-8.972-20-20-20c-11.028,0-20,8.972-20,20c0,4.333,1.399,8.337,3.75,11.615   l-38.293,92.278c-9.798,1.284-17.394,9.667-17.394,19.811C109,239.553,117.972,248.524,129,248.524z"
       id="path7"
       style="fill:#01bdf2;fill-opacity:1" /></g><g
     id="g9" /><g
     id="g11" /><g
     id="g13" /><g
     id="g15" /><g
     id="g17" /><g
     id="g19" /><g
     id="g21" /><g
     id="g23" /><g
     id="g25" /><g
     id="g27" /><g
     id="g29" /><g
     id="g31" /><g
     id="g33" /><g
     id="g35" /><g
     id="g37" /></svg>